<svg width="128" height="128" viewBox="0 0 128 128" xmlns="http://www.w3.org/2000/svg" role="img" aria-labelledby="title desc">
  <title id="title">Project Welcome Page Icon</title>
  <desc id="desc">A custom icon with a welcome layout, project cards, and recent items for the Project Welcome Page extension.</desc>
  <defs>
    <linearGradient id="bg" x1="16" y1="12" x2="112" y2="116" gradientUnits="userSpaceOnUse">
      <stop offset="0" stop-color="#143C64"/>
      <stop offset="0.55" stop-color="#0F2742"/>
      <stop offset="1" stop-color="#0A1728"/>
    </linearGradient>
    <linearGradient id="panel" x1="26" y1="24" x2="106" y2="98" gradientUnits="userSpaceOnUse">
      <stop offset="0" stop-color="#1A4F83"/>
      <stop offset="1" stop-color="#123459"/>
    </linearGradient>
    <linearGradient id="accent" x1="35" y1="35" x2="92" y2="92" gradientUnits="userSpaceOnUse">
      <stop offset="0" stop-color="#4DB0FF"/>
      <stop offset="1" stop-color="#0E78D8"/>
    </linearGradient>
    <filter id="shadow" x="8" y="10" width="112" height="112" filterUnits="userSpaceOnUse">
      <feOffset dy="6"/>
      <feGaussianBlur stdDeviation="8"/>
      <feColorMatrix type="matrix" values="0 0 0 0 0.02 0 0 0 0 0.08 0 0 0 0 0.14 0 0 0 0.35 0"/>
    </filter>
  </defs>

  <rect x="12" y="12" width="104" height="104" rx="26" fill="#07111C"/>
  <g filter="url(#shadow)">
    <rect x="16" y="16" width="96" height="96" rx="24" fill="url(#bg)"/>
  </g>
  <rect x="16" y="16" width="96" height="96" rx="24" fill="url(#bg)"/>
  <path d="M16 44C35 34 52 30 77 31C93 31 103 34 112 39V31C112 22.716 105.284 16 97 16H31C22.716 16 16 22.716 16 31V44Z" fill="rgba(255,255,255,0.04)"/>

  <rect x="28" y="30" width="72" height="68" rx="16" fill="url(#panel)" stroke="rgba(255,255,255,0.08)"/>

  <rect x="36" y="39" width="22" height="23" rx="8" fill="#0B1A2B" stroke="rgba(255,255,255,0.08)"/>
  <rect x="41" y="45" width="12" height="2.75" rx="1.375" fill="#58B5FF"/>
  <rect x="41" y="51" width="9" height="2.75" rx="1.375" fill="#58B5FF" opacity="0.9"/>
  <rect x="41" y="57" width="10" height="2.75" rx="1.375" fill="#58B5FF" opacity="0.7"/>

  <rect x="63" y="39" width="29" height="14" rx="7" fill="#0B1A2B" stroke="rgba(255,255,255,0.08)"/>
  <circle cx="71" cy="46" r="3" fill="#4DB0FF"/>
  <rect x="77" y="43.5" width="9" height="2.75" rx="1.375" fill="#D7ECFF" opacity="0.92"/>
  <rect x="77" y="48.5" width="6" height="2.25" rx="1.125" fill="#D7ECFF" opacity="0.55"/>

  <rect x="63" y="58" width="29" height="14" rx="7" fill="#0B1A2B" stroke="rgba(255,255,255,0.08)"/>
  <circle cx="71" cy="65" r="3" fill="#4DB0FF"/>
  <rect x="77" y="62.5" width="9" height="2.75" rx="1.375" fill="#D7ECFF" opacity="0.92"/>
  <rect x="77" y="67.5" width="6" height="2.25" rx="1.125" fill="#D7ECFF" opacity="0.55"/>

  <rect x="36" y="71" width="56" height="18" rx="9" fill="#0B1A2B" stroke="rgba(255,255,255,0.08)"/>
  <path d="M45 80H83" stroke="#90CCFF" stroke-width="3" stroke-linecap="round" opacity="0.75"/>

  <path d="M93.5 29.5L96.093 34.907L101.5 37.5L96.093 40.093L93.5 45.5L90.907 40.093L85.5 37.5L90.907 34.907L93.5 29.5Z" fill="url(#accent)"/>
  <circle cx="87.5" cy="91.5" r="8.5" fill="#0B1A2B" stroke="rgba(255,255,255,0.08)"/>
  <path d="M84.5 91.5L87 94L91.5 89.5" stroke="#4DB0FF" stroke-width="2.8" stroke-linecap="round" stroke-linejoin="round"/>
</svg>
